# xmcd
#
# Track frame offsets: 
#        150
#        16730
#        31537
#        42752
#        52635
#        76232
#        96332
#        110707
#        129310
#        139082
#        153152
#        168547
#        185045
#        206505
#        226502
#        244872
#        266355
#        279962
#        294212
#        318940
#
# Disc length: 4421 seconds
#
# Revision: 7
# Processed by: cddbd v1.5.2PL0 Copyright (c) Steve Scherf et al.
# Submitted via: ExactAudioCopy v1.0b3
#
DISCID=f5114314
DTITLE=Denver, John - The Rocky Mountain Collection [Disc 1]
DYEAR=1996
DGENRE=Country
TTITLE0=Leaving On A Jet Plane
TTITLE1=Rhymes and Reasons
TTITLE2=Follow Me
TTITLE3=Aspenglow
TTITLE4=Sunshine On My Shoulders
TTITLE5=My Sweet Lady
TTITLE6=Take Me Home Country Roads
TTITLE7=Poems, Prayers And Promises
TTITLE8=The Eagle And The Hawk
TTITLE9=Starwood In Aspen
TTITLE10=Friends With You
TTITLE11=Goodbye Again
TTITLE12=Rocky Mountain High
TTITLE13=I'd Rather Be A Cowboy (Lady's Chains)
TTITLE14=Farewell Andromeda (Welcome To My Morning)
TTITLE15=Back Home Again
TTITLE16=Annie's Song
TTITLE17=Thank God I'm A Country Boy
TTITLE18=Sweet Surrender
TTITLE19=This Old Guitar
EXTD=YEAR: 1996
EXTT0=
EXTT1=
EXTT2=
EXTT3=
EXTT4=
EXTT5=
EXTT6=
EXTT7=
EXTT8=
EXTT9=
EXTT10=
EXTT11=
EXTT12=
EXTT13=
EXTT14=
EXTT15=
EXTT16=
EXTT17=
EXTT18=
EXTT19=
PLAYORDER=
